<svg width="43" height="43" viewBox="0 0 43 43" fill="none" xmlns="http://www.w3.org/2000/svg">
<path d="M33.5007 34.5L34.0554 31.7276C34.3487 30.2612 35.1327 28.9096 35.4123 27.4406C35.4703 27.1359 35.5007 26.8215 35.5007 26.5C35.5007 23.7386 33.2621 21.5 30.5007 21.5C27.7392 21.5 25.5007 23.7386 25.5007 26.5C25.5007 26.8215 25.531 27.1359 25.589 27.4406C25.8686 28.9096 26.6526 30.2612 26.946 31.7276L27.5007 34.5M33.5007 34.5H27.5007M33.5007 34.5L38.4932 35.8318C40.25 36.2222 41.5 37.7804 41.5 39.5801C41.5 40.6404 40.6404 41.5 39.5801 41.5H38.4932H22.5H21.4199C20.3596 41.5 19.5 40.6404 19.5 39.5801C19.5 37.7804 20.75 36.2222 22.5068 35.8318L27.5007 34.5" stroke="white" stroke-width="3"/>
<path d="M31.5 15.5V13.5C31.5 7.84315 31.5 5.01472 29.7426 3.25736C27.9853 1.5 25.1569 1.5 19.5 1.5H13.5C7.84315 1.5 5.01472 1.5 3.25736 3.25736C1.5 5.01472 1.5 7.84315 1.5 13.5V29.5C1.5 35.1569 1.5 37.9853 3.25736 39.7426C5.01472 41.5 7.84315 41.5 13.5 41.5" stroke="white" stroke-width="3" stroke-linecap="round"/>
<path d="M11.5 14.8333C11.5 14.8333 12.75 14.8333 14 17.5C14 17.5 17.9706 10.8333 21.5 9.5" stroke="white" stroke-width="3" stroke-linecap="round" stroke-linejoin="round"/>
<path d="M9.5 25.5H17.5" stroke="white" stroke-width="3" stroke-linecap="round"/>
<path d="M9.5 31.5H17.5" stroke="white" stroke-width="3" stroke-linecap="round"/>
</svg>
