<svg width="17" height="17" viewBox="0 0 17 17" fill="none" xmlns="http://www.w3.org/2000/svg">
<path d="M13.4544 10.8294L16.1025 13.4775C16.4586 13.8336 16.4586 14.411 16.1025 14.7671C14.1773 16.6923 11.1294 16.9089 8.95124 15.2753L7.37582 14.0937C5.63229 12.7861 4.08347 11.2373 2.77582 9.49374L1.59426 7.91833C-0.0393395 5.74019 0.177267 2.6923 2.10248 0.767083C2.45858 0.410987 3.03593 0.410987 3.39202 0.767083L6.04015 3.41521C6.43067 3.80573 6.43067 4.4389 6.04015 4.82942L5.019 5.85057C4.85671 6.01285 4.81648 6.26077 4.91912 6.46605C6.10578 8.83937 8.0302 10.7638 10.4035 11.9504C10.6088 12.0531 10.8567 12.0129 11.019 11.8506L12.0401 10.8294C12.4307 10.4389 13.0638 10.4389 13.4544 10.8294Z" stroke="#A2A2A2"/>
</svg>
