<svg width="14" height="14" viewBox="0 0 14 14" fill="none" xmlns="http://www.w3.org/2000/svg">
<path opacity="0.987" fill-rule="evenodd" clip-rule="evenodd" d="M5.95926 0.06075C6.68426 -0.02025 7.11326 -0.02025 7.89226 0.06075C9.27119 0.264845 10.5495 0.902235 11.5423 1.88075C10.8714 2.51489 10.2093 3.15828 9.55626 3.81075C8.30559 2.75075 6.90959 2.50608 5.36826 3.07675C4.23759 3.59675 3.45026 4.43942 3.00626 5.60475C2.2807 5.06458 1.56459 4.51183 0.858258 3.94675C0.80917 3.92091 0.753105 3.91145 0.698257 3.91975C1.82026 1.75642 3.57359 0.46975 5.95826 0.05975" fill="#F44336"/>
<path opacity="0.997" fill-rule="evenodd" clip-rule="evenodd" d="M0.696252 3.91969C0.752919 3.91103 0.806585 3.92003 0.857252 3.94669C1.56358 4.51177 2.27969 5.06452 3.00525 5.60469C2.89108 6.05875 2.8191 6.52239 2.79025 6.98969C2.81492 7.44169 2.88659 7.88536 3.00525 8.32069L0.750252 10.1157C-0.231748 8.06369 -0.249748 5.99836 0.696252 3.91969Z" fill="#FFC107"/>
<path opacity="0.999" fill-rule="evenodd" clip-rule="evenodd" d="M11.4353 12.2897C10.7331 11.6705 9.99804 11.0897 9.23325 10.5497C9.99992 10.0084 10.4653 9.26574 10.6293 8.32174H6.87225V5.71274C9.03892 5.69474 11.2046 5.71308 13.3693 5.76774C13.7799 7.99774 13.3056 10.0084 11.9463 11.7997C11.7846 11.9716 11.6134 12.1351 11.4353 12.2897Z" fill="#448AFF"/>
<path opacity="0.993" fill-rule="evenodd" clip-rule="evenodd" d="M3.00526 8.32178C3.82526 10.3598 5.32859 11.3111 7.51526 11.1758C8.12909 11.1047 8.71761 10.8903 9.23326 10.5498C9.99859 11.0911 10.7326 11.6711 11.4353 12.2898C10.3219 13.2902 8.90237 13.8838 7.40826 13.9738C7.0688 14.0009 6.72772 14.0009 6.38826 13.9738C3.84293 13.6738 1.96359 12.3878 0.750259 10.1158L3.00526 8.32178Z" fill="#43A047"/>
</svg>
